<svg width="390" height="690" xmlns="http://www.w3.org/2000/svg" style="vector-effect: non-scaling-stroke;" stroke="null">

 <g stroke="null">
  <title stroke="null">Layer 1</title>
  <rect style="vector-effect: non-scaling-stroke;" stroke="#000" id="svg_13" height="0" width="8.00003" y="99.33526" x="597.33404" stroke-width="3" fill="none"/>
  <rect style="vector-effect: non-scaling-stroke;" stroke="#000" id="svg_23" height="0" width="10.6667" y="670.00396" x="641.33419" stroke-width="3" fill="none"/>
  <g stroke="null" id="svg_239">
   <g stroke="null" id="svg_43">
    <rect stroke="#000" stroke-width="5" rx="10" id="svg_3" height="664.29293" width="380" y="3.99994" x="5.33328" fill="none"/>
    <rect stroke="#000" stroke-width="5" id="svg_10" height="613.19348" width="350" y="29.54967" x="20.33328" fill="none"/>
    <rect stroke="#000" stroke-width="5" id="svg_2" height="613.19348" width="300" y="29.54967" x="45.33328" fill="none"/>
    <rect stroke="#000" stroke-width="5" id="svg_7" height="15.32984" width="40" y="669.66227" x="28.66453" fill="none"/>
    <rect stroke="#000" id="svg_8" height="15.32984" width="40" y="670.33685" x="283.33328" stroke-width="5" fill="none"/>
   </g>
   <g stroke="null" id="svg_74">
    <rect stroke="#000" id="svg_60" height="5.10995" width="5" y="208.39777" x="30.33328" stroke-width="3" fill="none"/>
    <rect stroke="#000" id="svg_61" height="5.10995" width="5" y="193.06793" x="30.33328" stroke-width="3" fill="none"/>
    <rect stroke="#000" id="svg_62" height="5.10995" width="5" y="223.72761" x="30.33328" stroke-width="3" fill="none"/>
    <rect stroke="#000" id="svg_63" height="5.10995" width="5" y="239.05744" x="30.33328" stroke-width="3" fill="none"/>
    <rect stroke="#000" id="svg_64" height="5.10995" width="5" y="40.11204" x="30.33328" stroke-width="3" fill="none"/>
    <rect stroke="#000" id="svg_65" height="5.10995" width="5" y="55.0994" x="30.33328" stroke-width="3" fill="none"/>
    <rect stroke="#000" id="svg_66" height="5.10995" width="5" y="177.7381" x="30.33328" stroke-width="3" fill="none"/>
    <rect stroke="#000" id="svg_67" height="5.10995" width="5" y="85.75907" x="30.33328" stroke-width="3" fill="none"/>
    <rect stroke="#000" id="svg_68" height="5.10995" width="5" y="162.40826" x="30.33328" stroke-width="3" fill="none"/>
    <rect stroke="#000" id="svg_69" height="5.10995" width="5" y="147.07842" x="30.33328" stroke-width="3" fill="none"/>
    <rect stroke="#000" id="svg_70" height="5.10995" width="5" y="116.41875" x="30.33328" stroke-width="3" fill="none"/>
    <rect stroke="#000" id="svg_71" height="5.10995" width="5" y="131.74859" x="30.33328" stroke-width="3" fill="none"/>
    <rect stroke="#000" id="svg_72" height="5.10995" width="5" y="101.08891" x="30.33328" stroke-width="3" fill="none"/>
    <rect stroke="#000" id="svg_73" height="5.10995" width="5" y="70.42924" x="30.33328" stroke-width="3" fill="none"/>
   </g>
   <g stroke="null" id="svg_104">
    <rect stroke="#000" id="svg_90" height="5.10995" width="5" y="422.67301" x="30.33327" stroke-width="3" fill="none"/>
    <rect stroke="#000" id="svg_91" height="5.10995" width="5" y="407.34317" x="30.33327" stroke-width="3" fill="none"/>
    <rect stroke="#000" id="svg_92" height="5.10995" width="5" y="438.00285" x="30.33327" stroke-width="3" fill="none"/>
    <rect stroke="#000" id="svg_93" height="5.10995" width="5" y="453.33268" x="30.33327" stroke-width="3" fill="none"/>
    <rect stroke="#000" id="svg_94" height="5.10995" width="5" y="254.38728" x="30.33327" stroke-width="3" fill="none"/>
    <rect stroke="#000" id="svg_95" height="5.10995" width="5" y="269.37464" x="30.33327" stroke-width="3" fill="none"/>
    <rect stroke="#000" id="svg_96" height="5.10995" width="5" y="392.01334" x="30.33327" stroke-width="3" fill="none"/>
    <rect stroke="#000" id="svg_97" height="5.10995" width="5" y="300.03431" x="30.33327" stroke-width="3" fill="none"/>
    <rect stroke="#000" id="svg_98" height="5.10995" width="5" y="376.6835" x="30.33327" stroke-width="3" fill="none"/>
    <rect stroke="#000" id="svg_99" height="5.10995" width="5" y="361.35366" x="30.33327" stroke-width="3" fill="none"/>
    <rect stroke="#000" id="svg_100" height="5.10995" width="5" y="330.69399" x="30.33327" stroke-width="3" fill="none"/>
    <rect stroke="#000" id="svg_101" height="5.10995" width="5" y="346.02383" x="30.33327" stroke-width="3" fill="none"/>
    <rect stroke="#000" id="svg_102" height="5.10995" width="5" y="315.36415" x="30.33327" stroke-width="3" fill="none"/>
    <rect stroke="#000" id="svg_103" height="5.10995" width="5" y="284.70448" x="30.33327" stroke-width="3" fill="none"/>
   </g>
   <g stroke="null" id="svg_119">
    <rect stroke="#000" id="svg_105" height="5.10995" width="5" y="422.67303" x="355.33327" stroke-width="3" fill="none"/>
    <rect stroke="#000" id="svg_106" height="5.10995" width="5" y="407.34319" x="355.33327" stroke-width="3" fill="none"/>
    <rect stroke="#000" id="svg_107" height="5.10995" width="5" y="438.00286" x="355.33327" stroke-width="3" fill="none"/>
    <rect stroke="#000" id="svg_108" height="5.10995" width="5" y="453.3327" x="355.33327" stroke-width="3" fill="none"/>
    <rect stroke="#000" id="svg_109" height="5.10995" width="5" y="254.38729" x="355.33327" stroke-width="3" fill="none"/>
    <rect stroke="#000" id="svg_110" height="5.10995" width="5" y="269.37466" x="355.33327" stroke-width="3" fill="none"/>
    <rect stroke="#000" id="svg_111" height="5.10995" width="5" y="392.01335" x="355.33327" stroke-width="3" fill="none"/>
    <rect stroke="#000" id="svg_112" height="5.10995" width="5" y="300.03433" x="355.33327" stroke-width="3" fill="none"/>
    <rect stroke="#000" id="svg_113" height="5.10995" width="5" y="376.68351" x="355.33327" stroke-width="3" fill="none"/>
    <rect stroke="#000" id="svg_114" height="5.10995" width="5" y="361.35368" x="355.33327" stroke-width="3" fill="none"/>
    <rect stroke="#000" id="svg_115" height="5.10995" width="5" y="330.694" x="355.33327" stroke-width="3" fill="none"/>
    <rect stroke="#000" id="svg_116" height="5.10995" width="5" y="346.02384" x="355.33327" stroke-width="3" fill="none"/>
    <rect stroke="#000" id="svg_117" height="5.10995" width="5" y="315.36417" x="355.33327" stroke-width="3" fill="none"/>
    <rect stroke="#000" id="svg_118" height="5.10995" width="5" y="284.70449" x="355.33327" stroke-width="3" fill="none"/>
   </g>
   <g stroke="null" id="svg_134">
    <rect stroke="#000" id="svg_120" height="5.10995" width="5" y="208.05529" x="355.33327" stroke-width="3" fill="none"/>
    <rect stroke="#000" id="svg_121" height="5.10995" width="5" y="192.72546" x="355.33327" stroke-width="3" fill="none"/>
    <rect stroke="#000" id="svg_122" height="5.10995" width="5" y="223.38513" x="355.33327" stroke-width="3" fill="none"/>
    <rect stroke="#000" id="svg_123" height="5.10995" width="5" y="238.71497" x="355.33327" stroke-width="3" fill="none"/>
    <rect stroke="#000" id="svg_124" height="5.10995" width="5" y="39.76956" x="355.33327" stroke-width="3" fill="none"/>
    <rect stroke="#000" id="svg_125" height="5.10995" width="5" y="54.75692" x="355.33327" stroke-width="3" fill="none"/>
    <rect stroke="#000" id="svg_126" height="5.10995" width="5" y="177.39562" x="355.33327" stroke-width="3" fill="none"/>
    <rect stroke="#000" id="svg_127" height="5.10995" width="5" y="85.4166" x="355.33327" stroke-width="3" fill="none"/>
    <rect stroke="#000" id="svg_128" height="5.10995" width="5" y="162.06578" x="355.33327" stroke-width="3" fill="none"/>
    <rect stroke="#000" id="svg_129" height="5.10995" width="5" y="146.73595" x="355.33327" stroke-width="3" fill="none"/>
    <rect stroke="#000" id="svg_130" height="5.10995" width="5" y="116.07627" x="355.33327" stroke-width="3" fill="none"/>
    <rect stroke="#000" id="svg_131" height="5.10995" width="5" y="131.40611" x="355.33327" stroke-width="3" fill="none"/>
    <rect stroke="#000" id="svg_132" height="5.10995" width="5" y="100.74644" x="355.33327" stroke-width="3" fill="none"/>
    <rect stroke="#000" id="svg_133" height="5.10995" width="5" y="70.08676" x="355.33327" stroke-width="3" fill="none"/>
   </g>
   <g stroke="null" id="svg_226">
    <rect stroke="#000" id="svg_165" height="5.10995" width="5" y="591.6437" x="355.33327" stroke-width="3" fill="none"/>
    <rect stroke="#000" id="svg_166" height="5.10995" width="5" y="576.31386" x="355.33327" stroke-width="3" fill="none"/>
    <rect stroke="#000" id="svg_167" height="5.10995" width="5" y="606.97354" x="355.33327" stroke-width="3" fill="none"/>
    <rect stroke="#000" id="svg_168" height="5.10995" width="5" y="622.30337" x="355.33327" stroke-width="3" fill="none"/>
    <rect stroke="#000" id="svg_171" height="5.10995" width="5" y="560.98403" x="355.33327" stroke-width="3" fill="none"/>
    <rect stroke="#000" id="svg_172" height="5.10995" width="5" y="469.005" x="355.33327" stroke-width="3" fill="none"/>
    <rect stroke="#000" id="svg_173" height="5.10995" width="5" y="545.65419" x="355.33327" stroke-width="3" fill="none"/>
    <rect stroke="#000" id="svg_174" height="5.10995" width="5" y="530.32435" x="355.33327" stroke-width="3" fill="none"/>
    <rect stroke="#000" id="svg_175" height="5.10995" width="5" y="499.66468" x="355.33327" stroke-width="3" fill="none"/>
    <rect stroke="#000" id="svg_176" height="5.10995" width="5" y="514.99452" x="355.33327" stroke-width="3" fill="none"/>
    <rect stroke="#000" id="svg_177" height="5.10995" width="5" y="484.33484" x="355.33327" stroke-width="3" fill="none"/>
   </g>
   <g stroke="null" id="svg_238">
    <rect stroke="#000" id="svg_227" height="5.10995" width="5" y="591.64371" x="30.33328" stroke-width="3" fill="none"/>
    <rect stroke="#000" id="svg_228" height="5.10995" width="5" y="576.31387" x="30.33328" stroke-width="3" fill="none"/>
    <rect stroke="#000" id="svg_229" height="5.10995" width="5" y="606.97354" x="30.33328" stroke-width="3" fill="none"/>
    <rect stroke="#000" id="svg_230" height="5.10995" width="5" y="622.30338" x="30.33328" stroke-width="3" fill="none"/>
    <rect stroke="#000" id="svg_231" height="5.10995" width="5" y="560.98403" x="30.33328" stroke-width="3" fill="none"/>
    <rect stroke="#000" id="svg_232" height="5.10995" width="5" y="469.00501" x="30.33328" stroke-width="3" fill="none"/>
    <rect stroke="#000" id="svg_233" height="5.10995" width="5" y="545.65419" x="30.33328" stroke-width="3" fill="none"/>
    <rect stroke="#000" id="svg_234" height="5.10995" width="5" y="530.32436" x="30.33328" stroke-width="3" fill="none"/>
    <rect stroke="#000" id="svg_235" height="5.10995" width="5" y="499.66468" x="30.33328" stroke-width="3" fill="none"/>
    <rect stroke="#000" id="svg_236" height="5.10995" width="5" y="514.99452" x="30.33328" stroke-width="3" fill="none"/>
    <rect stroke="#000" id="svg_237" height="5.10995" width="5" y="484.33485" x="30.33328" stroke-width="3" fill="none"/>
   </g>
  </g>
 </g>
</svg>